<?xml version="1.0" standalone="no"?>
<!DOCTYPE svg PUBLIC "-//W3C//DTD SVG 20010904//EN"
 "http://www.w3.org/TR/2001/REC-SVG-20010904/DTD/svg10.dtd">
<svg version="1.0" xmlns="http://www.w3.org/2000/svg"
 width="200.000000pt" height="200.000000pt" viewBox="0 0 200.000000 200.000000"
 preserveAspectRatio="xMidYMid meet">

<g transform="translate(0.000000,200.000000) scale(0.100000,-0.100000)"
fill="#000000" stroke="none">
<path d="M315 1716 c-122 -54 -117 -228 8 -275 19 -7 246 -11 686 -11 l658 0
33 23 c54 36 75 72 75 127 0 55 -21 91 -75 128 l-33 22 -661 0 c-529 -1 -667
-3 -691 -14z"/>
<path d="M320 1139 c-127 -51 -125 -230 3 -278 18 -7 158 -11 386 -11 355 0
358 0 391 23 54 36 75 72 75 127 0 55 -21 91 -75 128 -33 22 -36 22 -394 21
-214 0 -371 -4 -386 -10z"/>
<path d="M320 559 c-127 -51 -125 -230 3 -278 19 -7 216 -11 586 -11 l558 0
33 22 c54 37 75 73 75 128 0 55 -21 91 -75 128 l-33 22 -561 -1 c-347 0 -571
-4 -586 -10z"/>
</g>
</svg>
